<svg xmlns="http://www.w3.org/2000/svg" width="13" height="17" viewBox="0 0 13 17">
    <g fill="none" fill-rule="nonzero" stroke="#FFF" stroke-width=".66">
        <path d="M6.62 1.075a5.763 5.763 0 0 0-5.168 3.214 5.854 5.854 0 0 0 .55 6.096l4.618 6.22 4.618-6.22a5.854 5.854 0 0 0 .55-6.096A5.763 5.763 0 0 0 6.62 1.075zm4.311 9.079L6.62 15.949l-4.311-5.795a5.46 5.46 0 0 1 .69-7.269 5.352 5.352 0 0 1 7.242 0 5.46 5.46 0 0 1 .69 7.269z"/>
        <path d="M6.62 3.953c-1.503 0-2.723 1.227-2.726 2.742-.003 1.515 1.21 2.748 2.714 2.754 1.503.007 2.728-1.215 2.738-2.73a2.76 2.76 0 0 0-.792-1.955 2.715 2.715 0 0 0-1.934-.811zm0 5.135c-.96 0-1.823-.584-2.189-1.478a2.4 2.4 0 0 1 .521-2.603 2.353 2.353 0 0 1 2.586-.506 2.387 2.387 0 0 1 1.45 2.218c0 .633-.25 1.24-.694 1.688a2.358 2.358 0 0 1-1.674.699v-.018z"/>
    </g>
</svg>
